<?xml version="1.0" encoding="UTF-8"?>
<svg id="_レイヤー_2" data-name="レイヤー 2" xmlns="http://www.w3.org/2000/svg" viewBox="0 0 226.77 128.9">
  <defs>
    <style>
      .cls-1 {
        fill: #231815;
      }
    </style>
  </defs>
  <g id="_レイヤー_1-2" data-name="レイヤー 1">
    <g>
      <path class="cls-1" d="M112.53,128.9h-43.25v-63.15h21.37v-1.71h-23.23v64.86h-21.29v-64.86h-23.23v1.71h21.37v63.15H0v-41.04h21.14v20.19h1.85v-22.05H0v-42.37h44.37v-1.71H0V0h44.28v17.08h-21.37v1.71h23.23V0h21.29v18.79h23.23v-1.71h-21.37V0h43.25v41.92h-43.34v1.71h43.34v42.37h-21.96v22.05h1.85v-20.19h20.11v41.04ZM71.8,126.37h38.2v-35.99h-15.06v20.19h-6.9v-27.1h21.96v-37.32h-43.34v-6.76h43.34V2.53h-38.2v12.03h21.37v6.76h-28.28V2.53h-16.24v18.79h-28.27v-6.76h21.37V2.53H2.52v36.87h44.37v6.76H2.52v37.32h23v27.1h-6.9v-20.19H2.52v35.99h39.23v-58.1h-21.37v-6.75h28.27v64.86h16.24V61.52h28.28v6.75h-21.37v58.1Z"/>
      <path class="cls-1" d="M161.47,128.9h-47.08v-19.08h13.86v-1.71h-13.86V0h14.65v86.08h1.58V0h14.65v86.08h1.56V0h14.65v108.11h-14.89v1.71h14.89v19.08ZM116.91,126.37h42.03v-14.03h-14.89v-6.76h14.89V2.53h-9.6v86.08h-6.61V2.53h-9.6v86.08h-6.62V2.53h-9.6v103.06h13.86v6.76h-13.86v14.03Z"/>
      <path class="cls-1" d="M226.77,128.9h-31.09v-55.97h-1.56v55.97h-31.09v-54.26h14.65v35.18h1.56v-36.88h-16.21V0h63.75v17.09h-49.1v1.71h49.1v54.14h-16.21v1.71h5.09s11.12,0,11.12,0v33.47h-16.21v1.71h16.21v19.08ZM198.2,126.38h26.05v-14.03h-16.21v-6.76h16.21v-28.42h-8.59s-7.58,0-7.58,0l-.03-1.66v-5.1s16.21,0,16.21,0V21.32h-49.1v-6.76h49.1V2.52h-58.7v67.89h16.21v41.93h-6.61v-35.18h-9.6v49.21h26.05v-55.97h6.61v55.97ZM214.46,94.58h-6.41v-6.41h6.41v6.41ZM210.58,92.06h1.36v-1.36h-1.36v1.36ZM213.98,58.55h-13.95v-6.76h13.95v6.76ZM202.55,56.03h8.91v-1.71h-8.91v1.71ZM189.77,58.55h-13.95v-6.76h13.95v6.76ZM178.34,56.03h8.91v-1.71h-8.91v1.71ZM213.98,39.94h-13.95v-6.76h13.95v6.76ZM202.55,37.41h8.91v-1.71h-8.91v1.71ZM189.77,39.94h-13.95v-6.76h13.95v6.76ZM178.34,37.41h8.91v-1.71h-8.91v1.71Z"/>
    </g>
  </g>
</svg>