<?xml version="1.0" encoding="UTF-8"?>
<svg id="_レイヤー_2" data-name="レイヤー 2" xmlns="http://www.w3.org/2000/svg" viewBox="0 0 226.77 127.8">
  <defs>
    <style>
      .cls-1 {
        fill: #231815;
      }
    </style>
  </defs>
  <g id="_レイヤー_1-2" data-name="レイヤー 1">
    <g>
      <polygon class="cls-1" points="70.06 66.49 70.06 127.8 111.24 127.8 111.24 88.85 93.46 88.85 93.46 109.27 89.03 109.27 89.03 84.42 111.24 84.42 111.24 44.13 67.42 44.13 67.42 39.85 111.24 39.85 111.24 0 70.06 0 70.06 14.73 91.67 14.73 91.67 19.01 65.63 19.01 65.63 0 46.66 0 46.66 19.01 20.61 19.01 20.61 14.73 42.23 14.73 42.23 0 0 0 0 39.85 44.87 39.85 44.87 44.13 0 44.13 0 84.42 23.25 84.42 23.25 109.27 18.83 109.27 18.83 88.85 0 88.85 0 127.8 42.23 127.8 42.23 66.49 20.61 66.49 20.61 62.21 46.66 62.21 46.66 127.8 65.63 127.8 65.63 62.21 91.67 62.21 91.67 66.49 70.06 66.49"/>
      <polygon class="cls-1" points="115.67 0 115.67 106.78 129.68 106.78 129.68 111.06 115.67 111.06 115.67 127.79 160.73 127.79 160.73 111.06 145.68 111.06 145.68 106.78 160.73 106.78 160.73 0 148.47 0 148.47 87.06 144.34 87.06 144.34 0 132.08 0 132.08 87.06 127.93 87.06 127.93 0 115.67 0"/>
      <path class="cls-1" d="M226.77,14.73V0h-61.91v71.21h16.39v39.85h-4.13v-35.57h-12.26v52.32h28.89v-56.6h4.13v56.6h28.89v-16.74h-16.39v-4.28h16.39v-31.29h-9.97s-6.42,0-6.42,0v-.43s0-3.85,0-3.85h16.39V19.01h-49.65v-4.28h49.65ZM210.4,89.17h3.93v3.93h-3.93v-3.93ZM202.28,33.55h11.56v4.28h-11.56v-4.28ZM202.28,52.38h11.56v4.28h-11.56v-4.28ZM177.79,33.55h11.56v4.28h-11.56v-4.28ZM177.79,52.38h11.56v4.28h-11.56v-4.28Z"/>
    </g>
  </g>
</svg>