<?xml version="1.0" encoding="UTF-8"?>
<svg id="_レイヤー_2" data-name="レイヤー 2" xmlns="http://www.w3.org/2000/svg" viewBox="0 0 241.79 216.78">
  <defs>
    <style>
      .cls-1 {
        fill: #231815;
      }
    </style>
  </defs>
  <g id="_レイヤー_1-2" data-name="レイヤー 1">
    <g>
      <g>
        <rect class="cls-1" x="231.04" y="185.39" width="10.75" height="30.61"/>
        <path class="cls-1" d="M208.41,216h11.27l-11-30.61h-12.25l-10.44,30.61h11.28l.96-3.5h9.24l.96,3.5ZM204.91,203.58h-4.11l2.03-7.3,2.07,7.3Z"/>
        <g>
          <rect class="cls-1" x="141.17" y="185.39" width="10.32" height="30.61"/>
          <polygon class="cls-1" points="163.24 216 174.76 216 164.02 200.4 173.73 185.39 162.19 185.39 152.49 200.38 163.24 216"/>
        </g>
        <g>
          <rect class="cls-1" x="96.29" y="185.39" width="10.32" height="30.61"/>
          <polygon class="cls-1" points="118.36 216 129.88 216 119.14 200.4 128.86 185.39 117.31 185.39 107.61 200.38 118.36 216"/>
        </g>
        <path class="cls-1" d="M68.54,184.68h-2c-9.01,0-16.34,7.2-16.34,16.05s7.33,16.05,16.34,16.05h2c9.01,0,16.34-7.2,16.34-16.05s-7.33-16.05-16.34-16.05ZM73.98,201.16c0,3.5-2.89,6.34-6.45,6.34s-6.45-2.85-6.45-6.34v-.86c0-3.5,2.89-6.34,6.45-6.34s6.45,2.85,6.45,6.34v.86Z"/>
        <path class="cls-1" d="M22.96,215.97l5.5-17.12v17.15h10.32v-30.61h-13.31l-6.07,19.93-6.07-19.93H0v30.61h10.32v-17.15l5.5,17.12s.03.04.05.04h7.04s.04-.01.05-.04Z"/>
      </g>
      <g>
        <g>
          <path d="M178.11,146.48v-7.1h1.04v6.15h2.47v.95h-3.5Z"/>
          <path d="M183.41,146.48v-4.41h-.72v-.91h.72v-1.79h1v1.79h.87v.91h-.87v4.41h-1Z"/>
          <path d="M190.92,146.48v-.76h-.02c-.41.58-1.1.89-1.88.89-1.55,0-2.77-1.17-2.77-2.74s1.15-2.86,2.74-2.86c.72,0,1.4.26,1.83.8h.02v-2.44h1v7.1h-.92ZM189.07,141.93c-1.02,0-1.81.85-1.81,1.9s.82,1.87,1.81,1.87,1.85-.83,1.85-1.83c0-1.08-.73-1.94-1.85-1.94Z"/>
        </g>
        <circle cx="193.77" cy="145.89" r=".59"/>
      </g>
      <g>
        <polygon points="128.6 47.48 94.4 67.29 120.79 82.57 142.52 69.99 131.13 63.39 119.74 69.99 116.9 68.34 130.76 60.32 144.99 68.56 167.47 55.54 139.39 39.28 141.77 37.89 169.86 54.16 192.08 41.29 165.69 26 157.48 30.76 171.33 38.78 168.94 40.16 152.25 30.5 162.85 24.36 150.69 17.32 140.09 23.45 123.41 13.79 125.79 12.41 139.64 20.43 147.86 15.67 120.8 0 98.57 12.87 127.32 29.52 124.93 30.91 96.18 14.25 73.71 27.27 88.61 35.9 74.75 43.93 71.91 42.29 83.3 35.69 71.24 28.7 49.51 41.29 76.57 56.96 110.77 37.15 96.92 29.13 99.31 27.75 115.99 37.41 79.41 58.6 91.57 65.64 128.15 44.45 144.84 54.12 142.45 55.5 128.6 47.48"/>
        <polygon points="97.2 141.54 97.2 138.81 119.45 151.8 119.45 84.9 98.37 72.6 98.37 127.98 96.02 126.6 96.02 71.23 72.88 57.73 72.88 113.1 70.53 111.72 70.53 56.35 49.44 44.04 49.44 110.93 71.71 123.93 71.71 126.66 49.44 113.66 49.44 125.18 119.45 166.05 119.45 154.53 97.2 141.54"/>
        <path d="M173.79,125.16l-.03.02v-2.72l18.59-10.74v-19.76l-11.29,6.52-7.27,4.2v-.02s-.04.02-.04.02v-2.72l18.59-10.74v-32.95l-56.12,32.42v-.1l-.11.06v-2.71l56.23-32.48v-9.34l-70.11,40.5v45.1l16.15-9.33h0s2.36-1.37,2.36-1.37h0s0,.01,0,.01v.03l.05-.03v25.26l-2.62,1.51v-22.55l-15.95,9.21v33.16l33.9-19.58v-35.87h0v-.04l2.36-1.36v.04h0v35.87l33.86-19.56v-10.61l-18.56,10.72v-.07ZM150.01,104.5l-13.78,7.96v-2.72l.65-.37h0s13.09-7.57,13.09-7.57h0s.04-.01.04-.01v2.72ZM150.01,92.61l-13.78,7.96v-2.72l.65-.37v-.05l13.09-7.56v.05l.04-.02v2.72ZM178.39,108.53v2.72l-4.63,2.68v-2.72l4.63-2.68ZM163.93,81.85l.69-.4v-.05l13.09-7.56v2.71h0v.06l-13.78,7.96v-2.72ZM163.93,93.74l.69-.4h0s13.09-7.57,13.09-7.57v2.71h0v.02l-13.78,7.96v-2.72Z"/>
      </g>
    </g>
  </g>
</svg>